<svg version="1.1" id="Layer_1" xmlns="http://www.w3.org/2000/svg" xmlns:xlink="http://www.w3.org/1999/xlink" x="0px" y="0px"
	 width="100%" viewBox="0 0 260 260" enable-background="new 0 0 260 260" xml:space="preserve">
<path fill="#090001" opacity="1.000000" stroke="none" 
	d="
M142.000000,261.000000 
	C94.666664,261.000000 47.833332,261.000000 1.000000,261.000000 
	C1.000000,174.333328 1.000000,87.666664 1.000000,1.000000 
	C87.666664,1.000000 174.333328,1.000000 261.000000,1.000000 
	C261.000000,87.666664 261.000000,174.333328 261.000000,261.000000 
	C221.500000,261.000000 182.000000,261.000000 142.000000,261.000000 
M103.955727,158.838730 
	C103.958206,159.839691 103.960686,160.840668 103.044830,161.906906 
	C100.741760,161.923035 98.431564,162.059982 96.137444,161.924500 
	C93.312119,161.757614 91.883820,162.599564 91.971519,165.761292 
	C92.185753,173.485214 92.160431,181.215775 92.161880,189.716537 
	C92.199226,193.528397 95.175873,192.969498 97.161331,192.458542 
	C98.301506,192.165115 99.428978,190.105118 99.733673,188.665100 
	C100.255417,186.199158 100.127159,183.595703 100.271858,181.049988 
	C105.023186,184.481903 107.991829,188.373718 111.676376,191.391449 
	C113.075333,192.537201 116.121811,191.671387 118.417374,191.722412 
	C117.889992,190.093170 117.512558,188.394470 116.798096,186.851883 
	C115.859825,184.826050 114.656059,182.923187 114.374382,180.919495 
	C120.665733,177.829605 118.944443,172.189590 118.787117,166.375610 
	C117.828629,165.262894 116.870140,164.150177 115.483742,162.399033 
	C113.667961,162.213242 111.852188,162.027451 110.008209,161.085907 
	C110.031418,160.074112 110.054619,159.062332 110.927589,158.022293 
	C114.301453,157.335098 117.675308,156.647888 121.862503,155.992294 
	C125.036964,156.925369 128.240280,158.688980 131.378525,158.579926 
	C135.244461,158.445587 139.056183,156.751236 143.595123,156.051971 
	C147.410080,156.677948 151.225021,157.303925 155.027817,157.963364 
	C155.027817,157.963364 155.066986,157.965591 155.042877,158.817062 
	C153.667389,159.589752 152.319931,160.963837 150.911484,161.029480 
	C145.263489,161.292664 139.591232,161.026321 133.941620,161.271378 
	C132.916748,161.315842 131.285889,162.748199 131.153564,163.707901 
	C131.020142,164.675400 132.269989,165.983856 133.165512,166.895676 
	C133.886993,167.630249 135.778336,167.977234 135.791550,168.528763 
	C135.930573,174.327957 136.286118,180.222885 135.262039,185.851227 
	C135.088303,186.806091 128.662613,186.625549 125.124672,186.962601 
	C124.794357,186.994064 124.339760,186.835739 124.146149,187.002106 
	C123.073555,187.923752 121.373062,188.784683 121.154427,189.912064 
	C120.290321,194.367752 123.235031,196.238342 127.917160,194.785645 
	C130.813232,193.887085 133.855637,193.169922 136.867966,192.999023 
	C142.507111,192.679077 144.893173,190.524033 144.930603,184.906372 
	C144.956100,181.077744 144.931885,177.248825 144.936417,173.420029 
	C144.944016,166.989914 144.946213,166.989853 151.529648,166.988831 
	C152.362000,166.988708 153.201645,167.061310 154.025375,166.977280 
	C157.014633,166.672379 158.207809,167.905273 158.126144,170.972321 
	C157.966675,176.960907 158.200760,182.960083 158.035782,188.948380 
	C157.950806,192.033295 159.162476,193.042877 162.143890,192.977692 
	C165.053848,192.914062 166.994446,192.353165 166.919510,188.867203 
	C166.805038,183.542725 167.058716,178.207108 166.841263,172.889114 
	C166.683716,169.036194 167.102859,166.329086 172.048904,166.814880 
	C172.939102,166.902298 174.026901,164.978012 175.023468,163.982513 
	C173.965576,163.039124 173.002182,161.453186 171.830872,161.280884 
	C169.059799,160.873276 166.140503,161.440582 163.382614,160.991104 
	C162.161377,160.792068 161.185898,159.085007 160.260239,157.498428 
	C160.492920,156.972549 160.725586,156.446655 161.032410,156.475586 
	C161.323074,156.795364 161.613724,157.115128 161.904388,157.434906 
	C162.075378,157.241821 162.246368,157.048752 162.417358,156.855667 
	C161.921021,156.555817 161.424698,156.255966 160.807220,155.661224 
	C160.807220,155.661224 160.700943,155.360687 160.837662,154.497772 
	C160.900116,153.043915 160.962570,151.590073 161.766769,150.023849 
	C163.910904,148.914505 166.133530,147.925888 168.147354,146.616180 
	C168.692932,146.261353 168.607101,144.935654 169.640091,144.025375 
	C171.638596,143.558350 174.697571,145.276688 175.798477,141.210464 
	C181.001907,139.485092 179.972885,134.923294 181.080673,130.972260 
	C181.598083,130.314774 182.115494,129.657288 182.632889,128.999802 
	C180.376495,128.336426 178.155151,127.475700 175.853546,127.066940 
	C173.689041,126.682526 171.782684,127.194809 171.910599,130.833237 
	C168.655426,133.992386 168.518280,133.946213 164.465424,128.196960 
	C168.201706,126.582481 171.872955,125.325424 172.478806,120.093483 
	C172.793915,117.372498 176.122299,115.126740 177.167862,112.322655 
	C177.953400,110.215973 177.494385,107.517067 177.032867,105.192291 
	C176.950272,104.776192 173.890594,104.324089 172.661255,104.885887 
	C169.569901,106.298607 166.739136,108.281532 163.619522,109.205894 
	C163.537155,107.805977 163.454788,106.406059 163.609116,104.225662 
	C163.491425,102.857193 163.373734,101.488731 163.913361,99.527031 
	C168.634125,96.339699 165.436523,91.697502 165.990280,87.033508 
	C164.875656,86.322083 163.761047,85.610649 162.877167,84.208893 
	C164.018326,83.409065 165.159485,82.609238 166.224884,81.862503 
	C166.814407,78.343689 167.462463,74.475510 168.185883,70.157501 
	C166.552048,71.412361 165.392365,72.303047 163.673584,72.675804 
	C162.767471,71.114899 161.861359,69.553993 160.846985,67.246735 
	C160.819748,66.493309 160.792526,65.739876 161.596970,65.025421 
	C165.529663,63.951679 163.919907,61.537498 162.995422,59.276939 
	C162.316528,57.616898 161.438766,55.994953 161.064651,54.266212 
	C160.720963,52.678177 161.072662,50.948723 160.826324,49.325851 
	C160.734161,48.718693 159.853790,47.859966 159.267914,47.804775 
	C158.697464,47.751041 157.489288,48.612236 157.513901,49.013241 
	C157.729279,52.522858 158.073624,56.031158 158.558746,59.514919 
	C158.811935,61.333179 159.424515,63.101398 159.173111,64.746193 
	C155.283447,62.136204 150.611832,60.232132 151.473740,53.978912 
	C151.610336,52.987896 149.141998,51.637833 147.878021,50.453773 
	C147.332901,50.649929 146.787766,50.846088 146.242630,51.042244 
	C146.920609,53.569778 147.598572,56.097317 148.336899,58.849857 
	C147.358643,59.142311 145.886078,59.582535 144.374527,60.034420 
	C143.855667,57.480133 143.437042,55.419319 142.915161,52.850132 
	C140.237152,55.408344 138.275162,57.282581 135.588089,59.849445 
	C135.222809,55.236042 134.939484,51.657875 134.656174,48.079708 
	C134.332214,48.058475 134.008255,48.037239 133.684311,48.016006 
	C131.102737,52.477573 128.521179,56.939140 125.733170,61.757523 
	C123.554649,60.044865 122.327103,59.079823 121.059166,58.083027 
	C124.796745,54.588356 125.166328,45.087589 122.239670,42.790485 
	C120.814980,44.952465 119.717880,48.610909 117.882591,49.029015 
	C112.351807,50.289001 112.141602,54.131729 111.744888,58.290543 
	C111.731453,58.431469 111.218483,58.524746 110.398911,58.862621 
	C110.010742,56.035675 109.639809,53.334221 109.268875,50.632771 
	C108.591553,50.486641 107.914223,50.340515 107.236900,50.194386 
	C105.197266,55.295700 102.446304,60.250946 101.358620,65.547745 
	C100.584785,69.316109 99.410950,71.802017 95.974945,72.498116 
	C95.190628,71.783195 94.406319,71.068268 93.622002,70.353348 
	C93.172913,70.963692 92.723824,71.574043 92.274742,72.184387 
	C93.365944,72.890327 94.457153,73.596260 95.540031,74.847931 
	C95.539360,75.211807 95.538689,75.575691 94.862099,75.875488 
	C94.244591,76.821594 93.627083,77.767708 93.009583,78.713821 
	C94.768349,79.854149 96.527115,80.994476 98.196175,82.939774 
	C98.185623,84.290993 98.175072,85.642212 97.394470,87.022209 
	C96.652031,87.807510 95.909592,88.592812 95.167145,89.378105 
	C96.171120,89.916763 97.175102,90.455429 98.171013,91.817963 
	C98.176895,92.801697 97.793892,94.065849 98.262596,94.715851 
	C99.594429,96.562866 101.110764,98.375504 102.908890,99.731789 
	C103.503395,100.180199 105.177216,99.197685 106.357544,98.869423 
	C105.789619,97.295975 105.216766,95.724220 104.671837,94.142853 
	C104.650131,94.079865 104.893707,93.925461 105.723335,93.647751 
	C106.124565,92.467545 106.303848,91.131805 106.990685,90.151756 
	C107.651039,89.209480 108.836723,88.635368 109.699127,88.849686 
	C109.694809,93.992134 109.835236,99.142029 109.571304,104.271118 
	C109.514458,105.375931 107.998741,106.405678 107.022552,106.617828 
	C106.500809,105.122025 105.979073,103.626213 105.457321,102.130409 
	C104.913101,102.963379 104.368881,103.796356 103.376564,104.654549 
	C103.376564,104.654549 102.997704,104.895149 102.187416,104.772163 
	C101.779320,106.528465 101.371223,108.284760 100.239822,109.942024 
	C97.684090,108.449707 95.180267,106.855919 92.549591,105.510078 
	C91.328362,104.885315 89.607735,104.137932 88.581696,104.566643 
	C87.709328,104.931152 86.866608,107.060471 87.129494,108.135376 
	C87.970177,111.572853 89.331001,114.883125 90.598221,118.552933 
	C94.342110,118.334396 95.470642,120.358116 95.315147,124.022560 
	C95.243500,125.710876 96.571465,127.458580 97.676811,130.201935 
	C94.998756,130.201935 92.443390,130.201935 89.913246,129.358459 
	C88.440056,127.268768 81.158577,125.928902 79.827240,127.650238 
	C79.616890,127.922203 80.806519,129.276962 81.248055,130.977570 
	C80.033485,137.503204 82.658920,141.409225 90.043716,142.140305 
	C92.053673,142.768707 94.063637,143.397110 95.962288,144.815247 
	C98.631012,146.592117 101.299744,148.368988 103.991676,150.969284 
	C103.966316,152.617081 103.940948,154.264862 103.276711,155.992249 
	C102.719795,156.358154 102.162880,156.724060 101.605965,157.089966 
	C102.372757,157.421616 103.139549,157.753265 103.955727,158.838730 
M186.698288,166.542236 
	C186.149368,165.959671 185.672363,165.278549 185.036728,164.814865 
	C183.670288,163.818100 182.318542,162.500336 180.773254,162.156281 
	C179.757492,161.930130 177.399277,163.188919 177.407059,163.758606 
	C177.430862,165.498398 177.816620,167.684418 178.933823,168.885193 
	C186.456238,176.970261 186.450562,176.832230 178.711716,185.537460 
	C177.617584,186.768250 177.340454,189.097870 177.471252,190.860565 
	C177.523117,191.559525 179.826584,192.739090 180.909103,192.554092 
	C182.343369,192.308990 183.806137,191.146759 184.865982,190.013336 
	C187.308105,187.401672 189.514389,184.569504 191.479828,182.227798 
	C197.735565,184.694229 197.585205,194.785095 207.671005,191.959427 
	C206.600555,189.480972 206.155945,186.907822 204.673553,185.279358 
	C197.195526,177.064362 197.176804,177.221680 204.758377,169.086670 
	C205.978378,167.777618 206.362778,165.546783 206.684082,163.665329 
	C206.747498,163.294006 204.793381,162.236893 203.686752,162.079636 
	C201.532791,161.773560 200.002350,162.034729 198.756180,164.764679 
	C197.442764,167.641937 194.361496,169.712204 191.865219,172.331665 
	C190.043045,170.246674 188.651184,168.654053 186.698288,166.542236 
M89.924980,167.663986 
	C89.152466,165.790024 88.274055,162.277878 87.625389,162.319809 
	C84.469116,162.523849 79.502380,159.336258 78.869942,166.002182 
	C78.696861,167.826462 77.694450,169.642319 76.792992,171.310959 
	C75.396278,173.896362 73.759392,176.352036 72.037537,179.168243 
	C69.409981,173.061539 67.105949,167.706711 64.737709,162.202682 
	C63.660389,162.134705 62.494980,162.154099 61.361423,161.973526 
	C56.451546,161.191345 54.520550,162.871902 54.920780,168.154831 
	C55.422474,174.777023 55.113762,181.467224 55.007401,188.125702 
	C54.962391,190.943527 55.155075,192.929291 58.889771,192.826050 
	C62.445679,192.727753 62.964039,190.904495 62.883018,188.016769 
	C62.765747,183.837051 62.852989,179.651611 62.852989,174.338394 
	C68.466599,178.293427 65.523193,189.145081 74.873627,186.517029 
	C76.882530,182.335907 78.652710,178.651657 80.422882,174.967407 
	C80.981697,175.144669 81.540512,175.321945 82.099327,175.499207 
	C82.099327,179.277557 82.051315,183.056747 82.115578,186.834000 
	C82.161316,189.523041 81.217331,192.717392 85.872292,192.791138 
	C90.841805,192.869873 89.886894,189.469162 89.910225,186.606094 
	C89.959084,180.612320 89.924889,174.617874 89.924980,167.663986 
z"/>
<path fill="#B31F2A" opacity="1.000000" stroke="none" 
	d="
M160.765305,64.986450 
	C160.792526,65.739876 160.819748,66.493309 160.732697,67.954575 
	C159.782639,70.244171 158.727539,71.753616 158.175110,73.428818 
	C157.661774,74.985481 157.684494,76.718918 157.471191,78.374527 
	C158.376633,78.422432 159.701126,78.873833 160.112778,78.446297 
	C161.648254,76.851585 162.884308,74.968575 164.232697,73.193733 
	C165.392365,72.303047 166.552048,71.412361 168.185883,70.157501 
	C167.462463,74.475510 166.814407,78.343689 166.224884,81.862503 
	C165.159485,82.609238 164.018326,83.409065 162.386597,84.530350 
	C159.567108,85.913063 157.238174,86.974319 154.943878,88.026901 
	C154.978500,88.018219 154.978867,88.089615 154.975952,87.662842 
	C154.863144,85.547638 154.753281,83.859200 154.656387,82.370316 
	C151.958481,83.375946 149.763229,83.933662 147.865738,85.014221 
	C146.952621,85.534203 146.601120,87.040352 146.007172,88.052528 
	C146.019058,88.005127 146.113235,88.031281 145.690491,88.016739 
	C143.128937,87.123322 140.990143,86.244446 138.573349,85.251328 
	C138.238327,86.656334 137.876358,88.174416 137.534119,89.609718 
	C128.898911,92.796463 134.412674,83.223228 130.639694,82.024086 
	C126.374207,90.061089 126.374207,90.061089 121.163895,90.003464 
	C120.046227,88.700371 119.012589,87.795593 117.974289,86.530869 
	C115.299355,83.791473 112.629074,81.412025 109.945892,78.595825 
	C109.642967,75.604248 109.352951,73.049431 109.062935,70.494606 
	C108.610855,70.574478 108.158775,70.654343 107.706696,70.734207 
	C105.953445,76.494095 106.387894,78.030190 109.966049,79.335945 
	C110.613884,80.918396 111.326920,82.118042 111.891129,83.067299 
	C111.167641,84.785965 110.514061,86.338570 109.848091,87.930763 
	C109.835701,87.970352 109.791573,87.899475 109.791573,87.899475 
	C108.836723,88.635368 107.651039,89.209480 106.990685,90.151756 
	C106.303848,91.131805 106.124565,92.467545 105.340210,93.471680 
	C104.686325,92.870087 104.415573,92.444572 104.051453,91.674103 
	C102.026901,89.883904 100.095711,88.438667 98.164520,86.993431 
	C98.175072,85.642212 98.185623,84.290993 98.551010,82.446396 
	C99.794128,78.822327 99.430328,76.392876 95.538017,75.939568 
	C95.538689,75.575691 95.539360,75.211807 95.708130,74.336121 
	C95.915527,73.636948 95.954834,73.449570 95.994141,73.262192 
	C99.410950,71.802017 100.584785,69.316109 101.358620,65.547745 
	C102.446304,60.250946 105.197266,55.295700 107.236900,50.194386 
	C107.914223,50.340515 108.591553,50.486641 109.268875,50.632771 
	C109.639809,53.334221 110.010742,56.035675 110.398911,58.862621 
	C111.218483,58.524746 111.731453,58.431469 111.744888,58.290543 
	C112.141602,54.131729 112.351807,50.289001 117.882591,49.029015 
	C119.717880,48.610909 120.814980,44.952465 122.239670,42.790485 
	C125.166328,45.087589 124.796745,54.588356 121.059166,58.083027 
	C122.327103,59.079823 123.554649,60.044865 125.733170,61.757523 
	C128.521179,56.939140 131.102737,52.477573 133.684311,48.016006 
	C134.008255,48.037239 134.332214,48.058475 134.656174,48.079708 
	C134.939484,51.657875 135.222809,55.236042 135.588089,59.849445 
	C138.275162,57.282581 140.237152,55.408344 142.915161,52.850132 
	C143.437042,55.419319 143.855667,57.480133 144.374527,60.034420 
	C145.886078,59.582535 147.358643,59.142311 148.336899,58.849857 
	C147.598572,56.097317 146.920609,53.569778 146.242630,51.042244 
	C146.787766,50.846088 147.332901,50.649929 147.878021,50.453773 
	C149.141998,51.637833 151.610336,52.987896 151.473740,53.978912 
	C150.611832,60.232132 155.283447,62.136204 159.742447,64.885391 
	C160.311783,65.024582 160.765305,64.986450 160.765305,64.986450 
z"/>
<path fill="#1B1312" opacity="1.000000" stroke="none" 
	d="
M96.073601,144.025513 
	C94.063637,143.397110 92.053673,142.768707 90.360977,141.658783 
	C97.173637,136.257492 103.669037,131.337723 110.164429,126.417938 
	C109.595337,126.144539 109.026245,125.871140 108.457153,125.597733 
	C107.945869,123.407631 107.434586,121.217529 107.352486,118.942421 
	C109.217697,118.857414 110.653717,118.857414 112.089737,118.857414 
	C111.750397,119.375809 111.411064,119.894196 111.071724,120.412590 
	C113.342064,122.647743 115.612404,124.882896 117.913414,127.475945 
	C118.450821,132.057449 118.557289,132.180756 120.804779,131.418854 
	C120.985107,132.529968 121.082397,133.273163 121.096291,134.408569 
	C121.556702,140.307114 127.557419,144.478226 134.559311,144.216934 
	C138.436874,144.072235 142.863022,138.638596 142.963577,133.717682 
	C143.295364,132.910721 143.536545,132.396927 144.125458,131.876862 
	C145.694717,130.296890 146.916229,128.723175 148.483185,126.927345 
	C151.532562,124.787613 152.570816,122.167816 152.518097,118.889160 
	C153.599060,117.389893 154.277359,115.919960 154.947495,114.446320 
	C155.634735,112.935089 156.313995,111.420227 157.286880,110.194580 
	C157.644684,112.409607 157.402908,114.422531 157.902664,116.230492 
	C158.177414,117.224442 159.700546,117.873306 161.023300,118.704132 
	C162.654388,117.845680 163.923004,116.960876 165.191605,116.076065 
	C165.602173,116.664238 166.012741,117.252419 166.423294,117.840591 
	C162.598389,120.365967 158.773468,122.891342 153.843079,126.146599 
	C161.444199,131.616821 168.243683,136.510147 175.043167,141.403458 
	C174.697571,145.276688 171.638596,143.558350 168.784454,144.051422 
	C165.815842,144.079666 163.656586,143.818939 161.606781,144.179871 
	C160.318512,144.406738 159.194427,145.566071 157.996689,146.307053 
	C159.006134,147.583435 160.015579,148.859833 161.025024,150.136215 
	C160.962570,151.590073 160.900116,153.043915 160.417877,154.844879 
	C158.412674,154.083679 155.536072,153.065826 155.451050,151.852371 
	C154.891434,143.864700 148.991791,147.945740 145.370636,147.228745 
	C144.797897,147.115341 143.819397,149.051285 142.662262,149.969360 
	C139.947113,147.541107 137.838654,144.794327 134.498566,149.080017 
	C133.914673,149.829208 130.952560,148.603516 129.077454,148.503586 
	C127.360931,148.412094 125.608421,148.473816 123.911560,148.730759 
	C122.892708,148.885010 121.950081,149.542633 120.989014,149.986893 
	C121.004845,149.999756 121.029297,150.031998 120.992584,149.623383 
	C118.070839,144.555176 113.998878,148.132675 110.584267,147.148315 
	C110.858635,147.648361 111.133011,148.148392 111.407379,148.648438 
	C108.959808,151.118820 106.512238,153.589188 104.027100,156.023132 
	C103.989525,155.986725 103.915581,155.912659 103.915581,155.912659 
	C103.940948,154.264862 103.966316,152.617081 104.374573,150.487610 
	C105.452469,148.637863 106.471649,147.310989 106.653702,145.877762 
	C106.711647,145.421570 104.590065,144.298767 103.385002,144.154099 
	C100.977417,143.865082 98.513977,144.041367 96.073601,144.025513 
M106.248642,135.551697 
	C104.643188,137.030807 103.037743,138.509918 100.237038,141.090210 
	C103.446030,141.090210 105.195366,140.927795 106.900246,141.133606 
	C108.794449,141.362289 110.657356,141.889709 112.517212,142.353928 
	C115.061050,142.988861 117.589157,143.686859 121.144196,144.627884 
	C118.042221,140.059921 115.913170,136.924698 113.028824,132.677231 
	C111.497475,133.234390 109.123253,134.098236 106.248642,135.551697 
M154.606140,133.023010 
	C150.994202,136.177505 147.382248,139.332016 143.770294,142.486511 
	C144.046478,143.098770 144.322647,143.711029 144.598831,144.323303 
	C150.520981,142.971924 156.443130,141.620544 163.646515,139.976791 
	C160.528519,137.353668 157.954575,135.188248 154.606140,133.023010 
z"/>
<path fill="#F6F5F5" opacity="1.000000" stroke="none" 
	d="
M156.996750,109.906960 
	C156.313995,111.420227 155.634735,112.935089 154.947495,114.446320 
	C154.277359,115.919960 153.599060,117.389893 152.240143,118.720779 
	C149.910675,119.380402 148.265427,120.180695 146.626755,120.555405 
	C147.576874,117.751747 148.520432,115.373672 149.836212,112.953568 
	C150.812668,111.248306 151.416885,109.585083 152.115479,107.583305 
	C152.163910,106.121895 152.319717,104.937790 152.003738,103.896912 
	C151.779068,103.156769 150.918625,102.609619 150.341919,101.976341 
	C149.870850,102.811676 149.399765,103.647003 148.639572,104.534676 
	C147.798615,104.426918 147.246780,104.266823 146.728745,103.682556 
	C146.370880,101.802475 145.999619,100.339600 145.513809,98.915802 
	C145.494125,98.858086 143.976379,99.017075 143.861282,99.332359 
	C142.825409,102.169746 141.947342,105.064743 140.954163,108.315750 
	C139.943069,109.750191 139.000793,110.811722 138.058502,111.873245 
	C138.979843,112.309883 139.901184,112.746529 140.849304,113.504333 
	C140.963028,116.185158 141.049973,118.544823 141.075302,121.153084 
	C141.007294,121.572311 141.000916,121.742935 140.674713,122.017319 
	C138.842773,123.397758 137.330688,124.674454 135.475128,126.132256 
	C131.681000,128.851425 129.459396,125.524200 126.712395,124.444199 
	C126.681259,124.332756 126.474434,124.228928 126.370117,124.030670 
	C126.042229,123.574089 126.001137,123.289284 126.346771,122.748772 
	C126.460823,120.542717 126.538574,118.535164 126.185966,116.606285 
	C126.068390,115.963150 124.848885,115.521454 124.053741,114.700729 
	C123.999565,114.018951 124.024780,113.624130 124.415009,113.176674 
	C127.273712,112.696884 127.487259,111.808350 125.552368,110.123085 
	C124.723465,109.401123 124.284859,108.231064 123.758965,106.909622 
	C122.896019,105.696701 121.943031,104.838760 120.988159,103.991379 
	C120.986275,104.001930 121.002655,104.015770 121.062050,103.579239 
	C120.596779,101.709724 120.072113,100.276733 119.547447,98.843742 
	C119.021500,100.280670 118.473389,101.710213 117.989525,103.161179 
	C117.899773,103.430351 118.068871,103.785843 117.938034,104.391693 
	C116.580833,104.512009 115.404099,104.342133 113.610260,104.083160 
	C113.122452,106.971817 112.636810,109.847626 111.971115,112.972183 
	C110.621635,113.154808 109.452209,113.088692 108.163048,112.674438 
	C107.747223,110.707535 107.451126,109.088760 107.155029,107.469994 
	C107.998741,106.405678 109.514458,105.375931 109.571304,104.271118 
	C109.835236,99.142029 109.694809,93.992134 109.745346,88.374580 
	C109.791573,87.899475 109.835701,87.970352 110.291069,87.805374 
	C113.162086,87.736938 115.577736,87.833481 117.963715,88.295517 
	C118.954231,89.447571 119.974419,90.234116 121.010681,91.411392 
	C123.414024,96.464500 127.652229,96.296928 131.960358,96.039566 
	C133.606277,95.941246 135.263229,96.040619 136.914795,96.020645 
	C140.113770,95.981964 145.322464,91.447189 146.113235,88.031281 
	C146.113235,88.031281 146.019058,88.005127 146.453506,87.985062 
	C149.584930,88.006531 152.281891,88.048073 154.978867,88.089615 
	C154.978867,88.089615 154.978500,88.018219 154.948792,88.431610 
	C154.419418,90.794708 153.919724,92.744415 153.665909,93.734795 
	C154.146378,97.334061 154.375748,100.270432 154.979645,103.127655 
	C155.353088,104.894577 156.296234,106.541092 156.973328,108.519211 
	C156.974274,109.166832 156.985519,109.536896 156.996750,109.906960 
z"/>
<path fill="#520E15" opacity="1.000000" stroke="none" 
	d="
M160.098862,158.062531 
	C161.185898,159.085007 162.161377,160.792068 163.382614,160.991104 
	C166.140503,161.440582 169.059799,160.873276 171.830872,161.280884 
	C173.002182,161.453186 173.965576,163.039124 175.023468,163.982513 
	C174.026901,164.978012 172.939102,166.902298 172.048904,166.814880 
	C167.102859,166.329086 166.683716,169.036194 166.841263,172.889114 
	C167.058716,178.207108 166.805038,183.542725 166.919510,188.867203 
	C166.994446,192.353165 165.053848,192.914062 162.143890,192.977692 
	C159.162476,193.042877 157.950806,192.033295 158.035782,188.948380 
	C158.200760,182.960083 157.966675,176.960907 158.126144,170.972321 
	C158.207809,167.905273 157.014633,166.672379 154.025375,166.977280 
	C153.201645,167.061310 152.362000,166.988708 151.529648,166.988831 
	C144.946213,166.989853 144.944016,166.989914 144.936417,173.420029 
	C144.931885,177.248825 144.956100,181.077744 144.930603,184.906372 
	C144.893173,190.524033 142.507111,192.679077 136.867966,192.999023 
	C133.855637,193.169922 130.813232,193.887085 127.917160,194.785645 
	C123.235031,196.238342 120.290321,194.367752 121.154427,189.912064 
	C121.373062,188.784683 123.073555,187.923752 124.146149,187.002106 
	C124.339760,186.835739 124.794357,186.994064 125.124672,186.962601 
	C128.662613,186.625549 135.088303,186.806091 135.262039,185.851227 
	C136.286118,180.222885 135.930573,174.327957 135.791550,168.528763 
	C135.778336,167.977234 133.886993,167.630249 133.165512,166.895676 
	C132.269989,165.983856 131.020142,164.675400 131.153564,163.707901 
	C131.285889,162.748199 132.916748,161.315842 133.941620,161.271378 
	C139.591232,161.026321 145.263489,161.292664 150.911484,161.029480 
	C152.319931,160.963837 153.667389,159.589752 155.470947,158.399872 
	C157.298950,158.009308 158.698914,158.035919 160.098862,158.062531 
M143.529022,165.283569 
	C145.184189,165.190201 146.839340,165.096817 148.494507,165.003448 
	C148.461288,164.383377 148.428085,163.763290 148.394867,163.143204 
	C146.253784,163.364609 144.112701,163.585999 141.235046,163.832703 
	C140.498062,163.834900 139.761078,163.837097 138.474884,163.342575 
	C136.590271,163.342575 134.705673,163.342575 132.821060,163.342575 
	C132.827011,163.966614 132.832962,164.590668 132.838928,165.214706 
	C134.775909,165.214706 136.712891,165.214706 138.838608,166.106873 
	C138.959076,173.345261 139.079544,180.583649 138.659134,188.193375 
	C138.266220,188.769760 137.836105,189.328201 137.536423,189.949539 
	C137.505630,190.013397 138.254257,190.453171 138.641205,190.718521 
	C139.088745,189.791306 139.536301,188.864105 140.829041,187.717896 
	C141.383255,186.359436 142.359985,185.018997 142.418839,183.639404 
	C142.679504,177.529999 142.676514,171.409317 143.529022,165.283569 
M165.214447,165.295990 
	C167.597321,165.156906 169.980209,165.017822 172.363083,164.878738 
	C172.326508,164.404465 172.289932,163.930191 172.253372,163.455917 
	C169.532532,163.599243 166.811707,163.742554 163.279190,163.847260 
	C162.197876,163.894196 161.116547,163.941116 159.198730,163.618561 
	C156.959076,163.618561 154.719421,163.618561 152.479767,163.618561 
	C152.483322,164.081436 152.486893,164.544296 152.490448,165.007172 
	C155.008286,165.007172 157.526138,165.007172 160.524872,165.781860 
	C160.557510,172.919479 160.528839,180.058517 160.691635,187.193161 
	C160.714935,188.214371 161.663605,189.214478 162.184006,190.224350 
	C162.852707,189.197296 164.069687,188.187149 164.101990,187.140457 
	C164.327209,179.845078 164.306946,172.542145 165.214447,165.295990 
z"/>
<path fill="#7A1E28" opacity="1.000000" stroke="none" 
	d="
M186.978821,166.801849 
	C188.651184,168.654053 190.043045,170.246674 191.865219,172.331665 
	C194.361496,169.712204 197.442764,167.641937 198.756180,164.764679 
	C200.002350,162.034729 201.532791,161.773560 203.686752,162.079636 
	C204.793381,162.236893 206.747498,163.294006 206.684082,163.665329 
	C206.362778,165.546783 205.978378,167.777618 204.758377,169.086670 
	C197.176804,177.221680 197.195526,177.064362 204.673553,185.279358 
	C206.155945,186.907822 206.600555,189.480972 207.671005,191.959427 
	C197.585205,194.785095 197.735565,184.694229 191.479828,182.227798 
	C189.514389,184.569504 187.308105,187.401672 184.865982,190.013336 
	C183.806137,191.146759 182.343369,192.308990 180.909103,192.554092 
	C179.826584,192.739090 177.523117,191.559525 177.471252,190.860565 
	C177.340454,189.097870 177.617584,186.768250 178.711716,185.537460 
	C186.450562,176.832230 186.456238,176.970261 178.933823,168.885193 
	C177.816620,167.684418 177.430862,165.498398 177.407059,163.758606 
	C177.399277,163.188919 179.757492,161.930130 180.773254,162.156281 
	C182.318542,162.500336 183.670288,163.818100 185.036728,164.814865 
	C185.672363,165.278549 186.149368,165.959671 186.978821,166.801849 
M191.008759,176.583466 
	C191.197510,177.715714 191.386261,178.847977 191.575012,179.980225 
	C193.155014,175.958405 193.155014,175.958405 191.008759,176.583466 
z"/>
<path fill="#761D26" opacity="1.000000" stroke="none" 
	d="
M89.924896,168.143845 
	C89.924889,174.617874 89.959084,180.612320 89.910225,186.606094 
	C89.886894,189.469162 90.841805,192.869873 85.872292,192.791138 
	C81.217331,192.717392 82.161316,189.523041 82.115578,186.834000 
	C82.051315,183.056747 82.099327,179.277557 82.099327,175.499207 
	C81.540512,175.321945 80.981697,175.144669 80.422882,174.967407 
	C78.652710,178.651657 76.882530,182.335907 74.873627,186.517029 
	C65.523193,189.145081 68.466599,178.293427 62.852989,174.338394 
	C62.852989,179.651611 62.765747,183.837051 62.883018,188.016769 
	C62.964039,190.904495 62.445679,192.727753 58.889771,192.826050 
	C55.155075,192.929291 54.962391,190.943527 55.007401,188.125702 
	C55.113762,181.467224 55.422474,174.777023 54.920780,168.154831 
	C54.520550,162.871902 56.451546,161.191345 61.361423,161.973526 
	C62.494980,162.154099 63.660389,162.134705 64.737709,162.202682 
	C67.105949,167.706711 69.409981,173.061539 72.037537,179.168243 
	C73.759392,176.352036 75.396278,173.896362 76.792992,171.310959 
	C77.694450,169.642319 78.696861,167.826462 78.869942,166.002182 
	C79.502380,159.336258 84.469116,162.523849 87.625389,162.319809 
	C88.274055,162.277878 89.152466,165.790024 89.924896,168.143845 
M87.294914,189.899521 
	C87.294914,181.376740 87.294914,172.853958 87.294914,163.747162 
	C85.427193,163.992279 83.568016,164.236267 81.708839,164.480240 
	C82.443176,165.855591 83.355873,167.170197 83.851967,168.626694 
	C84.209335,169.675903 84.050919,170.914047 84.054726,172.068146 
	C84.071129,177.032730 83.920799,182.004547 84.170364,186.956619 
	C84.227173,188.083893 85.636024,189.143021 87.294914,189.899521 
M56.957981,165.845428 
	C56.952324,172.506073 56.844234,179.169434 57.020138,185.825287 
	C57.059288,187.306625 58.098099,188.761536 58.676643,190.228622 
	C59.344650,188.820938 60.417591,187.466705 60.611599,185.996475 
	C61.523277,179.087448 58.623840,171.710052 63.204597,165.223618 
	C63.337627,165.035248 62.835625,164.398392 62.391178,163.475143 
	C60.638683,163.952164 58.845531,164.440262 56.957981,165.845428 
z"/>
<path fill="#76141F" opacity="1.000000" stroke="none" 
	d="
M106.923294,119.027428 
	C107.434586,121.217529 107.945869,123.407631 108.457153,125.597733 
	C109.026245,125.871140 109.595337,126.144539 110.164429,126.417938 
	C103.669037,131.337723 97.173637,136.257492 90.317627,141.290680 
	C82.658920,141.409225 80.033485,137.503204 81.711243,130.533890 
	C84.745628,130.127457 87.316818,130.164703 89.888016,130.201935 
	C92.443390,130.201935 94.998756,130.201935 97.676811,130.201935 
	C96.571465,127.458580 95.243500,125.710876 95.315147,124.022560 
	C95.470642,120.358116 94.342110,118.334396 90.598221,118.552933 
	C89.331001,114.883125 87.970177,111.572853 87.129494,108.135376 
	C86.866608,107.060471 87.709328,104.931152 88.581696,104.566643 
	C89.607735,104.137932 91.328362,104.885315 92.549591,105.510078 
	C95.180267,106.855919 97.684090,108.449707 100.723404,110.387665 
	C100.168251,114.298309 103.035393,115.883476 104.593727,118.164841 
	C104.504501,118.274063 104.743164,118.422119 104.743164,118.422119 
	C104.743164,118.422119 104.848610,118.161613 105.151077,118.396637 
	C105.943466,118.763573 106.433380,118.895500 106.923294,119.027428 
z"/>
<path fill="#75141F" opacity="1.000000" stroke="none" 
	d="
M175.420822,141.306961 
	C168.243683,136.510147 161.444199,131.616821 153.843079,126.146599 
	C158.773468,122.891342 162.598389,120.365967 166.423294,117.840591 
	C166.012741,117.252419 165.602173,116.664238 165.191605,116.076065 
	C163.923004,116.960876 162.654388,117.845680 161.042252,118.305466 
	C161.733765,115.265579 162.768829,112.650711 163.803894,110.035843 
	C166.739136,108.281532 169.569901,106.298607 172.661255,104.885887 
	C173.890594,104.324089 176.950272,104.776192 177.032867,105.192291 
	C177.494385,107.517067 177.953400,110.215973 177.167862,112.322655 
	C176.122299,115.126740 172.793915,117.372498 172.478806,120.093483 
	C171.872955,125.325424 168.201706,126.582481 164.465424,128.196960 
	C168.518280,133.946213 168.655426,133.992386 172.412445,130.450317 
	C175.418991,130.390640 177.923691,130.713882 180.428406,131.037125 
	C179.972885,134.923294 181.001907,139.485092 175.420822,141.306961 
z"/>
<path fill="#7D202A" opacity="1.000000" stroke="none" 
	d="
M113.566467,180.967453 
	C114.656059,182.923187 115.859825,184.826050 116.798096,186.851883 
	C117.512558,188.394470 117.889992,190.093170 118.417374,191.722412 
	C116.121811,191.671387 113.075333,192.537201 111.676376,191.391449 
	C107.991829,188.373718 105.023186,184.481903 100.271858,181.049988 
	C100.127159,183.595703 100.255417,186.199158 99.733673,188.665100 
	C99.428978,190.105118 98.301506,192.165115 97.161331,192.458542 
	C95.175873,192.969498 92.199226,193.528397 92.417419,188.995178 
	C92.782013,181.393555 92.844933,174.511963 93.043839,167.634308 
	C93.078499,166.435501 93.686295,165.253265 94.022964,164.528259 
	C94.016541,173.276138 94.016541,181.559158 94.016541,189.842178 
	C94.559967,190.076782 95.103394,190.311401 95.646820,190.546005 
	C96.340668,189.327225 97.589706,188.129562 97.636963,186.886200 
	C97.913963,179.597305 97.910149,172.297745 98.468246,164.999100 
	C103.172523,165.003128 107.411674,165.079910 111.644890,164.955261 
	C112.456619,164.931351 113.245018,164.115082 114.238358,163.499023 
	C114.925560,163.234940 115.418610,163.136200 115.911652,163.037460 
	C116.870140,164.150177 117.828629,165.262894 118.570648,167.026169 
	C117.888924,170.420074 117.423676,173.163406 116.955177,175.454391 
	C116.295639,172.162338 118.580482,168.185638 113.451042,165.541016 
	C113.451042,169.866043 113.451042,172.807678 113.298004,176.132172 
	C113.118187,177.331284 113.091408,178.147537 112.771095,179.024261 
	C112.168564,179.501953 111.859566,179.919159 111.550560,180.336380 
	C112.222527,180.546738 112.894501,180.757095 113.566467,180.967453 
M108.104836,181.173431 
	C108.104836,181.173431 108.377861,181.196396 108.377861,181.196396 
	C108.377861,181.196396 107.968819,180.978821 107.992119,180.228058 
	C107.508667,179.841827 107.025215,179.455597 106.541771,179.069366 
	C106.375732,179.464035 106.209694,179.858704 106.043648,180.253372 
	C106.687675,180.491272 107.331711,180.729187 108.104836,181.173431 
M100.648705,176.605255 
	C104.092255,176.465500 107.535812,176.325745 111.148460,175.258057 
	C111.169876,173.453888 111.422997,171.610397 111.126144,169.860214 
	C110.946877,168.803314 110.115707,167.317383 109.231712,167.006119 
	C102.924339,164.785263 99.725014,167.137695 99.846840,173.674988 
	C99.862091,174.493301 99.956329,175.310120 100.648705,176.605255 
z"/>
<path fill="#79151F" opacity="1.000000" stroke="none" 
	d="
M120.973190,149.974030 
	C121.950081,149.542633 122.892708,148.885010 123.911560,148.730759 
	C125.608421,148.473816 127.360931,148.412094 129.077454,148.503586 
	C130.952560,148.603516 133.914673,149.829208 134.498566,149.080017 
	C137.838654,144.794327 139.947113,147.541107 142.656036,149.954224 
	C143.016068,150.009445 143.002182,150.022644 142.976135,150.433655 
	C142.930527,152.473465 142.910934,154.102280 142.891342,155.731094 
	C139.056183,156.751236 135.244461,158.445587 131.378525,158.579926 
	C128.240280,158.688980 125.036964,156.925369 121.443710,155.550812 
	C121.007668,153.397568 120.990433,151.685791 120.973190,149.974030 
z"/>
<path fill="#F6F5F5" opacity="1.000000" stroke="none" 
	d="
M107.352493,118.942421 
	C106.433380,118.895500 105.943466,118.763573 105.142616,118.356598 
	C104.831688,118.081535 104.682953,118.055611 104.682953,118.055611 
	C103.035393,115.883476 100.168251,114.298309 101.085052,110.437187 
	C101.371223,108.284760 101.779320,106.528465 102.673447,105.052811 
	C103.321960,105.607780 103.540680,105.825638 103.884689,106.416565 
	C104.617180,109.066139 105.280617,111.286186 105.960846,113.861877 
	C107.419296,115.114265 108.856003,116.659317 110.304436,116.670380 
	C111.207565,116.677277 112.128395,114.367310 113.327866,112.989685 
	C114.022026,112.883369 114.429588,112.884460 114.967468,113.217422 
	C115.736694,114.416412 116.375603,115.283539 117.103378,116.323700 
	C117.343216,116.715714 117.538406,116.883171 117.871628,117.331291 
	C119.629829,118.085991 121.294212,118.508492 122.965485,119.344673 
	C122.975029,121.138885 122.977676,122.519409 122.603455,124.036560 
	C120.173218,124.261772 117.740135,123.790260 117.882744,127.118050 
	C115.612404,124.882896 113.342064,122.647743 111.071724,120.412590 
	C111.411064,119.894196 111.750397,119.375809 112.089737,118.857414 
	C110.653717,118.857414 109.217697,118.857414 107.352493,118.942421 
z"/>
<path fill="#311818" opacity="1.000000" stroke="none" 
	d="
M156.983627,108.241661 
	C156.296234,106.541092 155.353088,104.894577 154.979645,103.127655 
	C154.375748,100.270432 154.146378,97.334061 153.665909,93.734795 
	C153.919724,92.744415 154.419418,90.794708 154.914169,88.440292 
	C157.238174,86.974319 159.567108,85.913063 162.271240,84.875519 
	C163.761047,85.610649 164.875656,86.322083 165.613785,87.420364 
	C162.812790,89.305893 159.398743,90.270828 158.226166,92.444771 
	C156.902222,94.899353 157.304810,98.554794 160.919464,100.424286 
	C157.557037,102.279625 157.904114,105.182175 157.758011,108.064850 
	C157.329956,108.171967 157.156799,108.206810 156.983627,108.241661 
z"/>
<path fill="#9E242D" opacity="1.000000" stroke="none" 
	d="
M161.031860,100.080246 
	C157.304810,98.554794 156.902222,94.899353 158.226166,92.444771 
	C159.398743,90.270828 162.812790,89.305893 165.656296,87.783691 
	C165.436523,91.697502 168.634125,96.339699 163.309906,99.803085 
	C162.148239,100.079506 161.590057,100.079872 161.031860,100.080246 
z"/>
<path fill="#70141E" opacity="1.000000" stroke="none" 
	d="
M160.179550,157.780487 
	C158.698914,158.035919 157.298950,158.009308 155.483002,157.974136 
	C155.066986,157.965591 155.027817,157.963364 155.019226,157.582535 
	C152.972290,151.522720 147.726089,151.209503 143.002182,150.022644 
	C143.002182,150.022644 143.016068,150.009445 143.022278,150.024582 
	C143.819397,149.051285 144.797897,147.115341 145.370636,147.228745 
	C148.991791,147.945740 154.891434,143.864700 155.451050,151.852371 
	C155.536072,153.065826 158.412674,154.083679 160.349518,155.276337 
	C160.700943,155.360687 160.807220,155.661224 160.905396,155.825989 
	C161.003571,155.990738 160.958252,155.920776 160.958252,155.920776 
	C160.725586,156.446655 160.492920,156.972549 160.179550,157.780487 
z"/>
<path fill="#79151F" opacity="1.000000" stroke="none" 
	d="
M161.181137,65.005936 
	C160.765305,64.986450 160.311783,65.024582 160.093277,64.958405 
	C159.424515,63.101398 158.811935,61.333179 158.558746,59.514919 
	C158.073624,56.031158 157.729279,52.522858 157.513901,49.013241 
	C157.489288,48.612236 158.697464,47.751041 159.267914,47.804775 
	C159.853790,47.859966 160.734161,48.718693 160.826324,49.325851 
	C161.072662,50.948723 160.720963,52.678177 161.064651,54.266212 
	C161.438766,55.994953 162.316528,57.616898 162.995422,59.276939 
	C163.919907,61.537498 165.529663,63.951679 161.181137,65.005936 
z"/>
<path fill="#6D131D" opacity="1.000000" stroke="none" 
	d="
M115.697693,162.718246 
	C115.418610,163.136200 114.925560,163.234940 113.768616,163.495300 
	C108.060928,163.783783 103.017143,163.910675 97.583275,163.954605 
	C96.138588,163.935562 95.083984,163.999466 94.029388,164.063385 
	C93.686295,165.253265 93.078499,166.435501 93.043839,167.634308 
	C92.844933,174.511963 92.782013,181.393555 92.452240,188.608734 
	C92.160431,181.215775 92.185753,173.485214 91.971519,165.761292 
	C91.883820,162.599564 93.312119,161.757614 96.137444,161.924500 
	C98.431564,162.059982 100.741760,161.923035 103.935555,161.931885 
	C106.562988,161.918472 108.299698,161.880066 110.036407,161.841660 
	C111.852188,162.027451 113.667961,162.213242 115.697693,162.718246 
z"/>
<path fill="#520E15" opacity="1.000000" stroke="none" 
	d="
M142.976135,150.433655 
	C147.726089,151.209503 152.972290,151.522720 155.025299,157.565796 
	C151.225021,157.303925 147.410080,156.677948 143.243225,155.891541 
	C142.910934,154.102280 142.930527,152.473465 142.976135,150.433655 
z"/>
<path fill="#A51D27" opacity="1.000000" stroke="none" 
	d="
M104.144821,92.019058 
	C104.415573,92.444572 104.686325,92.870087 104.985382,93.554626 
	C104.893707,93.925461 104.650131,94.079865 104.671837,94.142853 
	C105.216766,95.724220 105.789619,97.295975 106.357544,98.869431 
	C105.177216,99.197685 103.503395,100.180199 102.908890,99.731789 
	C101.110764,98.375504 99.594429,96.562866 98.262596,94.715851 
	C97.793892,94.065849 98.176895,92.801697 98.549835,91.418945 
	C100.667381,91.352966 102.406097,91.686012 104.144821,92.019058 
z"/>
<path fill="#ECE6E6" opacity="1.000000" stroke="none" 
	d="
M156.973328,108.519211 
	C157.156799,108.206810 157.329956,108.171967 158.070786,108.167725 
	C159.341415,107.796677 160.074356,107.438766 160.740051,106.982727 
	C161.644440,106.363174 162.497406,105.668564 163.372437,105.006142 
	C163.454788,106.406059 163.537155,107.805977 163.711700,109.620865 
	C162.768829,112.650711 161.733765,115.265579 160.679764,118.279106 
	C159.700546,117.873306 158.177414,117.224442 157.902664,116.230492 
	C157.402908,114.422531 157.644684,112.409607 157.286880,110.194580 
	C156.985519,109.536896 156.974274,109.166832 156.973328,108.519211 
z"/>
<path fill="#180F0E" opacity="1.000000" stroke="none" 
	d="
M120.989021,149.986893 
	C120.990433,151.685791 121.007668,153.397568 121.037033,155.535004 
	C117.675308,156.647888 114.301453,157.335098 110.444931,157.991379 
	C109.962273,157.960464 109.846802,157.873337 109.929871,157.531586 
	C113.685051,154.803894 117.357170,152.417938 121.029297,150.031998 
	C121.029297,150.031998 121.004845,149.999756 120.989021,149.986893 
z"/>
<path fill="#70141E" opacity="1.000000" stroke="none" 
	d="
M161.395905,150.080032 
	C160.015579,148.859833 159.006134,147.583435 157.996689,146.307053 
	C159.194427,145.566071 160.318512,144.406738 161.606781,144.179871 
	C163.656586,143.818939 165.815842,144.079666 168.369934,144.066528 
	C168.607101,144.935654 168.692932,146.261353 168.147354,146.616180 
	C166.133530,147.925888 163.910904,148.914505 161.395905,150.080032 
z"/>
<path fill="#6D131D" opacity="1.000000" stroke="none" 
	d="
M96.017944,144.420380 
	C98.513977,144.041367 100.977417,143.865082 103.385002,144.154099 
	C104.590065,144.298767 106.711647,145.421570 106.653702,145.877762 
	C106.471649,147.310989 105.452469,148.637863 104.362976,150.075897 
	C101.299744,148.368988 98.631012,146.592117 96.017944,144.420380 
z"/>
<path fill="#1F100F" opacity="1.000000" stroke="none" 
	d="
M163.953140,72.934769 
	C162.884308,74.968575 161.648254,76.851585 160.112778,78.446297 
	C159.701126,78.873833 158.376633,78.422432 157.471191,78.374527 
	C157.684494,76.718918 157.661774,74.985481 158.175110,73.428818 
	C158.727539,71.753616 159.782639,70.244171 160.786835,68.327744 
	C161.861359,69.553993 162.767471,71.114899 163.953140,72.934769 
z"/>
<path fill="#A42F38" opacity="1.000000" stroke="none" 
	d="
M105.944061,113.506233 
	C105.280617,111.286186 104.617180,109.066139 103.922165,106.077423 
	C103.868607,105.082275 103.846634,104.855804 103.824661,104.629333 
	C104.368881,103.796356 104.913101,102.963379 105.457321,102.130409 
	C105.979073,103.626213 106.500809,105.122025 107.088791,107.043915 
	C107.451126,109.088760 107.747223,110.707535 107.793686,112.833481 
	C107.010727,113.395851 106.477394,113.451042 105.944061,113.506233 
z"/>
<path fill="#B43A43" opacity="1.000000" stroke="none" 
	d="
M163.490784,104.615906 
	C162.497406,105.668564 161.644440,106.363174 160.740051,106.982727 
	C160.074356,107.438766 159.341415,107.796677 158.325684,108.095444 
	C157.904114,105.182175 157.557037,102.279625 160.919464,100.424286 
	C161.590057,100.079872 162.148239,100.079506 162.981232,100.099701 
	C163.373734,101.488731 163.491425,102.857193 163.490784,104.615906 
z"/>
<path fill="#180F0E" opacity="1.000000" stroke="none" 
	d="
M180.754547,131.004700 
	C177.923691,130.713882 175.418991,130.390640 172.485077,130.093689 
	C171.782684,127.194809 173.689041,126.682526 175.853546,127.066940 
	C178.155151,127.475700 180.376495,128.336426 182.632904,128.999817 
	C182.115494,129.657288 181.598083,130.314774 180.754547,131.004700 
z"/>
<path fill="#180F0E" opacity="1.000000" stroke="none" 
	d="
M89.900635,129.780212 
	C87.316818,130.164703 84.745628,130.127457 81.761642,130.110657 
	C80.806519,129.276962 79.616890,127.922203 79.827240,127.650238 
	C81.158577,125.928902 88.440056,127.268768 89.900635,129.780212 
z"/>
<path fill="#66151B" opacity="1.000000" stroke="none" 
	d="
M95.200058,75.907532 
	C99.430328,76.392876 99.794128,78.822327 98.595863,82.043907 
	C96.527115,80.994476 94.768349,79.854149 93.009583,78.713821 
	C93.627083,77.767708 94.244591,76.821594 95.200058,75.907532 
z"/>
<path fill="#66151B" opacity="1.000000" stroke="none" 
	d="
M104.051453,91.674103 
	C102.406097,91.686012 100.667381,91.352966 98.553864,91.007004 
	C97.175102,90.455429 96.171120,89.916763 95.167145,89.378105 
	C95.909592,88.592812 96.652031,87.807510 97.779495,87.007820 
	C100.095711,88.438667 102.026901,89.883904 104.051453,91.674103 
z"/>
<path fill="#6D131D" opacity="1.000000" stroke="none" 
	d="
M116.958427,175.906754 
	C117.423676,173.163406 117.888924,170.420074 118.571671,167.362366 
	C118.944443,172.189590 120.665733,177.829605 113.970428,180.943481 
	C112.894501,180.757095 112.222527,180.546738 111.550560,180.336380 
	C111.859566,179.919159 112.168564,179.501953 113.062775,178.936310 
	C114.153572,177.915771 114.659142,177.043655 115.465790,176.139954 
	C116.164047,176.041153 116.561234,175.973953 116.958427,175.906754 
z"/>
<path fill="#1F100F" opacity="1.000000" stroke="none" 
	d="
M110.022308,161.463776 
	C108.299698,161.880066 106.562988,161.918472 104.394722,161.899261 
	C103.960686,160.840668 103.958206,159.839691 103.971985,158.422333 
	C103.988243,158.005951 104.072548,157.929520 104.484436,157.978088 
	C106.546486,157.975540 108.196648,157.924438 109.846802,157.873337 
	C109.846802,157.873337 109.962273,157.960464 110.020050,158.005493 
	C110.054619,159.062332 110.031418,160.074112 110.022308,161.463776 
z"/>
<path fill="#66151B" opacity="1.000000" stroke="none" 
	d="
M95.984543,72.880157 
	C95.954834,73.449570 95.915527,73.636948 95.712296,74.063255 
	C94.457153,73.596260 93.365944,72.890327 92.274742,72.184387 
	C92.723824,71.574043 93.172913,70.963692 93.622002,70.353348 
	C94.406319,71.068268 95.190628,71.783195 95.984543,72.880157 
z"/>
<path fill="#1B1312" opacity="1.000000" stroke="none" 
	d="
M103.947289,158.045441 
	C103.139549,157.753265 102.372757,157.421616 101.605965,157.089966 
	C102.162880,156.724060 102.719795,156.358154 103.596146,155.952454 
	C103.915581,155.912659 103.989525,155.986725 104.020767,156.334595 
	C104.058853,157.098145 104.065697,157.513840 104.072548,157.929520 
	C104.072548,157.929520 103.988243,158.005951 103.947289,158.045441 
z"/>
<path fill="#1B1312" opacity="1.000000" stroke="none" 
	d="
M160.965973,155.973419 
	C161.424698,156.255966 161.921021,156.555817 162.417358,156.855667 
	C162.246368,157.048752 162.075378,157.241821 161.904388,157.434906 
	C161.613724,157.115128 161.323074,156.795364 160.995331,156.198181 
	C160.958252,155.920776 161.003571,155.990738 160.965973,155.973419 
z"/>
<path fill="#ECE6E6" opacity="1.000000" stroke="none" 
	d="
M103.600616,104.641937 
	C103.846634,104.855804 103.868607,105.082275 103.853119,105.647888 
	C103.540680,105.825638 103.321960,105.607780 103.078598,105.114304 
	C102.997704,104.895149 103.376564,104.654549 103.600616,104.641937 
z"/>
<path fill="#1C1513" opacity="1.000000" stroke="none" 
	d="
M145.690491,88.016739 
	C145.322464,91.447189 140.113770,95.981964 136.914795,96.020645 
	C135.263229,96.040619 133.606277,95.941246 131.960358,96.039566 
	C127.652229,96.296928 123.414024,96.464500 121.125427,91.277679 
	C121.224098,90.753235 121.247917,90.401779 121.247917,90.401779 
	C126.374207,90.061089 126.374207,90.061089 130.639694,82.024086 
	C134.412674,83.223228 128.898911,92.796463 137.534119,89.609718 
	C137.876358,88.174416 138.238327,86.656334 138.573349,85.251328 
	C140.990143,86.244446 143.128937,87.123322 145.690491,88.016739 
z"/>
<path fill="#1F100F" opacity="1.000000" stroke="none" 
	d="
M117.993385,87.930023 
	C115.577736,87.833481 113.162086,87.736938 110.303459,87.765785 
	C110.514061,86.338570 111.167641,84.785965 111.891129,83.067299 
	C111.326920,82.118042 110.613884,80.918396 109.939133,79.347763 
	C109.977409,78.976791 109.958794,79.032578 109.958794,79.032578 
	C112.629074,81.412025 115.299355,83.791473 117.867157,86.792801 
	C117.840912,87.586456 117.917145,87.758240 117.993385,87.930023 
z"/>
<path fill="#1F100F" opacity="1.000000" stroke="none" 
	d="
M154.975952,87.662842 
	C152.281891,88.048073 149.584930,88.006531 146.441620,88.032455 
	C146.601120,87.040352 146.952621,85.534203 147.865738,85.014221 
	C149.763229,83.933662 151.958481,83.375946 154.656387,82.370316 
	C154.753281,83.859200 154.863144,85.547638 154.975952,87.662842 
z"/>
<path fill="#311818" opacity="1.000000" stroke="none" 
	d="
M110.004333,78.964966 
	C106.387894,78.030190 105.953445,76.494095 107.706696,70.734207 
	C108.158775,70.654343 108.610855,70.574478 109.062935,70.494606 
	C109.352951,73.049431 109.642967,75.604248 109.945892,78.595825 
	C109.958794,79.032578 109.977409,78.976791 110.004333,78.964966 
z"/>
<path fill="#5E4D4C" opacity="1.000000" stroke="none" 
	d="
M117.963715,88.295517 
	C117.917145,87.758240 117.840912,87.586456 117.871811,87.152748 
	C119.012589,87.795593 120.046227,88.700371 121.163895,90.003464 
	C121.247917,90.401779 121.224098,90.753235 121.109360,90.886948 
	C119.974419,90.234116 118.954231,89.447571 117.963715,88.295517 
z"/>
<path fill="#F6F5F5" opacity="1.000000" stroke="none" 
	d="
M142.872986,134.010864 
	C142.863022,138.638596 138.436874,144.072235 134.559311,144.216934 
	C127.557419,144.478226 121.556702,140.307114 121.376793,134.409454 
	C122.114639,134.017670 122.488594,134.017197 122.965271,134.428650 
	C128.907272,135.021500 134.746323,135.213715 140.586929,135.325134 
	C140.750916,135.328262 140.931351,134.468140 141.398895,134.003113 
	C142.086792,134.000717 142.479889,134.005798 142.872986,134.010864 
z"/>
<path fill="#79151F" opacity="1.000000" stroke="none" 
	d="
M106.498840,135.256882 
	C109.123253,134.098236 111.497475,133.234390 113.028824,132.677231 
	C115.913170,136.924698 118.042221,140.059921 121.144196,144.627884 
	C117.589157,143.686859 115.061050,142.988861 112.517212,142.353928 
	C110.657356,141.889709 108.794449,141.362289 106.900246,141.133606 
	C105.195366,140.927795 103.446030,141.090210 100.237038,141.090210 
	C103.037743,138.509918 104.643188,137.030807 106.498840,135.256882 
z"/>
<path fill="#ECDEE0" opacity="1.000000" stroke="none" 
	d="
M142.963577,133.717682 
	C142.479889,134.005798 142.086792,134.000717 141.135788,133.656052 
	C134.672775,133.549881 128.767654,133.783310 122.862541,134.016724 
	C122.488594,134.017197 122.114639,134.017670 121.460190,134.017242 
	C121.082397,133.273163 120.985107,132.529968 120.908287,131.026611 
	C120.621384,125.968857 123.938599,127.488182 126.289780,127.347748 
	C128.112503,129.969284 136.002258,130.770340 137.841599,128.719376 
	C138.125854,128.402405 138.055267,127.767189 138.550430,127.240273 
	C140.356308,127.201393 141.760559,127.201393 143.432190,127.201393 
	C143.568863,129.053177 143.673294,130.468155 143.777740,131.883133 
	C143.536545,132.396927 143.295364,132.910721 142.963577,133.717682 
z"/>
<path fill="#75141F" opacity="1.000000" stroke="none" 
	d="
M154.993393,133.022919 
	C157.954575,135.188248 160.528519,137.353668 163.646515,139.976791 
	C156.443130,141.620544 150.520981,142.971924 144.598831,144.323303 
	C144.322647,143.711029 144.046478,143.098770 143.770294,142.486511 
	C147.382248,139.332016 150.994202,136.177505 154.993393,133.022919 
z"/>
<path fill="#75141F" opacity="1.000000" stroke="none" 
	d="
M104.484436,157.978088 
	C104.065697,157.513840 104.058853,157.098145 104.058334,156.371002 
	C106.512238,153.589188 108.959808,151.118820 111.407379,148.648438 
	C111.133011,148.148392 110.858635,147.648361 110.584267,147.148315 
	C113.998878,148.132675 118.070839,144.555176 120.992577,149.623383 
	C117.357170,152.417938 113.685051,154.803894 109.929871,157.531586 
	C108.196648,157.924438 106.546486,157.975540 104.484436,157.978088 
z"/>
<path fill="#BB8185" opacity="1.000000" stroke="none" 
	d="
M146.620193,120.980988 
	C148.265427,120.180695 149.910675,119.380402 151.833893,118.748482 
	C152.570816,122.167816 151.532562,124.787613 148.176971,126.861862 
	C146.095917,124.360550 141.013046,126.376518 140.994553,121.913567 
	C141.000916,121.742935 141.007294,121.572311 141.463242,121.223129 
	C143.481934,121.023376 145.051071,121.002190 146.620193,120.980988 
z"/>
<path fill="#A42F38" opacity="1.000000" stroke="none" 
	d="
M140.674713,122.017319 
	C141.013046,126.376518 146.095917,124.360550 147.831543,127.083984 
	C146.916229,128.723175 145.694717,130.296890 144.125473,131.876862 
	C143.673294,130.468155 143.568863,129.053177 143.432190,127.201393 
	C141.760559,127.201393 140.356308,127.201393 138.338074,126.962952 
	C137.088913,126.466728 136.453766,126.208939 135.818604,125.951157 
	C137.330688,124.674454 138.842773,123.397758 140.674713,122.017319 
z"/>
<path fill="#B43A43" opacity="1.000000" stroke="none" 
	d="
M126.051346,127.074524 
	C123.938599,127.488182 120.621384,125.968857 120.825249,130.658691 
	C118.557289,132.180756 118.450821,132.057449 117.913414,127.475945 
	C117.740135,123.790260 120.173218,124.261772 122.818527,124.071854 
	C123.410454,123.970535 123.840332,123.899498 124.110115,124.161194 
	C125.078079,124.358238 125.776253,124.293579 126.474434,124.228928 
	C126.474434,124.228928 126.681259,124.332756 126.486931,124.831879 
	C126.212189,125.912178 126.131767,126.493355 126.051346,127.074524 
z"/>
<path fill="#351D1D" opacity="1.000000" stroke="none" 
	d="
M114.837158,112.885559 
	C114.429588,112.884460 114.022026,112.883369 113.122894,112.853943 
	C112.631332,112.825615 112.151161,112.723442 112.151169,112.723442 
	C112.636810,109.847626 113.122452,106.971817 113.610260,104.083160 
	C115.404099,104.342133 116.580833,104.512009 118.297287,104.349701 
	C119.558891,104.016930 120.280777,104.016350 121.002655,104.015770 
	C121.002655,104.015770 120.986275,104.001930 120.941803,104.365936 
	C120.926857,105.481865 120.956398,106.233780 120.635101,106.987274 
	C119.666870,107.366005 119.049469,107.743156 118.432068,108.120300 
	C118.764534,108.416771 119.097008,108.713234 119.429474,109.009705 
	C119.961449,108.347977 120.493423,107.686249 121.353462,107.074829 
	C122.343987,107.171631 123.006454,107.218109 123.668922,107.264595 
	C124.284859,108.231064 124.723465,109.401123 125.552368,110.123085 
	C127.487259,111.808350 127.273712,112.696884 124.036057,113.116196 
	C120.473785,113.034081 117.655472,112.959816 114.837158,112.885559 
z"/>
<path fill="#2F1B1B" opacity="1.000000" stroke="none" 
	d="
M140.822525,113.183167 
	C139.901184,112.746529 138.979843,112.309883 138.058502,111.873245 
	C139.000793,110.811722 139.943069,109.750191 141.219147,108.197800 
	C142.961182,108.269623 144.369400,108.832314 146.690948,109.759933 
	C145.129120,107.637009 144.491013,106.769653 143.852905,105.902298 
	C144.800247,105.303772 145.747604,104.705246 146.694946,104.106728 
	C147.246780,104.266823 147.798615,104.426918 148.714447,104.894958 
	C150.059341,106.109230 151.040237,107.015549 152.021118,107.921860 
	C151.416885,109.585083 150.812668,111.248306 149.422302,112.956894 
	C146.031616,113.062553 143.427063,113.122856 140.822525,113.183167 
z"/>
<path fill="#8A1A24" opacity="1.000000" stroke="none" 
	d="
M140.849304,113.504326 
	C143.427063,113.122856 146.031616,113.062553 149.050079,112.998917 
	C148.520432,115.373672 147.576874,117.751747 146.626755,120.555405 
	C145.051071,121.002190 143.481934,121.023376 141.524872,120.974533 
	C141.049973,118.544823 140.963028,116.185158 140.849304,113.504326 
z"/>
<path fill="#9B323B" opacity="1.000000" stroke="none" 
	d="
M114.967468,113.217422 
	C117.655472,112.959816 120.473785,113.034081 123.671051,113.168823 
	C124.024780,113.624130 123.999565,114.018951 123.953667,115.033905 
	C123.608185,116.746346 123.283386,117.838669 122.958588,118.930992 
	C121.294212,118.508492 119.629829,118.085991 117.906769,117.081192 
	C117.570229,116.382812 117.292366,116.266739 117.014511,116.150665 
	C116.375603,115.283539 115.736694,114.416412 114.967468,113.217422 
z"/>
<path fill="#782F33" opacity="1.000000" stroke="none" 
	d="
M126.289780,127.347748 
	C126.131767,126.493355 126.212189,125.912178 126.518066,124.943329 
	C129.459396,125.524200 131.681000,128.851425 135.475128,126.132263 
	C136.453766,126.208939 137.088913,126.466728 137.936432,127.001831 
	C138.055267,127.767189 138.125854,128.402405 137.841599,128.719376 
	C136.002258,130.770340 128.112503,129.969284 126.289780,127.347748 
z"/>
<path fill="#8F474D" opacity="1.000000" stroke="none" 
	d="
M146.728745,103.682556 
	C145.747604,104.705246 144.800247,105.303772 143.852905,105.902298 
	C144.491013,106.769653 145.129120,107.637009 146.690948,109.759933 
	C144.369400,108.832314 142.961182,108.269623 141.287949,107.824883 
	C141.947342,105.064743 142.825409,102.169746 143.861282,99.332359 
	C143.976379,99.017075 145.494125,98.858086 145.513809,98.915802 
	C145.999619,100.339600 146.370880,101.802475 146.728745,103.682556 
z"/>
<path fill="#ECE6E6" opacity="1.000000" stroke="none" 
	d="
M111.971115,112.972183 
	C112.151161,112.723442 112.631332,112.825615 112.836304,112.961349 
	C112.128395,114.367310 111.207565,116.677277 110.304436,116.670380 
	C108.856003,116.659317 107.419296,115.114265 105.960846,113.861877 
	C106.477394,113.451042 107.010727,113.395851 107.913422,113.181618 
	C109.452209,113.088692 110.621635,113.154808 111.971115,112.972183 
z"/>
<path fill="#ECE6E6" opacity="1.000000" stroke="none" 
	d="
M122.965485,119.344673 
	C123.283386,117.838669 123.608185,116.746346 124.033051,115.320847 
	C124.848885,115.521454 126.068390,115.963150 126.185966,116.606285 
	C126.538574,118.535164 126.460823,120.542717 125.998398,122.620117 
	C124.910622,123.113617 124.375473,123.506561 123.840332,123.899498 
	C123.840332,123.899498 123.410454,123.970535 123.195389,123.935242 
	C122.977676,122.519409 122.975029,121.138885 122.965485,119.344673 
z"/>
<path fill="#8F474D" opacity="1.000000" stroke="none" 
	d="
M152.115494,107.583305 
	C151.040237,107.015549 150.059341,106.109230 149.003571,104.842621 
	C149.399765,103.647003 149.870850,102.811676 150.341919,101.976341 
	C150.918625,102.609619 151.779068,103.156769 152.003738,103.896912 
	C152.319717,104.937790 152.163910,106.121895 152.115494,107.583305 
z"/>
<path fill="#893B42" opacity="1.000000" stroke="none" 
	d="
M121.062050,103.579239 
	C120.280777,104.016350 119.558891,104.016930 118.477753,104.059509 
	C118.068871,103.785843 117.899773,103.430351 117.989525,103.161179 
	C118.473389,101.710213 119.021500,100.280670 119.547447,98.843742 
	C120.072113,100.276733 120.596779,101.709724 121.062050,103.579239 
z"/>
<path fill="#893B42" opacity="1.000000" stroke="none" 
	d="
M120.985931,106.985695 
	C120.956398,106.233780 120.926857,105.481865 120.943680,104.355392 
	C121.943031,104.838760 122.896019,105.696701 123.758965,106.909622 
	C123.006454,107.218109 122.343987,107.171631 121.343094,107.064842 
	C121.004662,107.004539 120.985931,106.985695 120.985931,106.985695 
z"/>
<path fill="#782F33" opacity="1.000000" stroke="none" 
	d="
M124.110115,124.161194 
	C124.375473,123.506561 124.910622,123.113617 125.794136,122.849335 
	C126.001137,123.289284 126.042229,123.574089 126.370117,124.030670 
	C125.776253,124.293579 125.078079,124.358238 124.110115,124.161194 
z"/>
<path fill="#FBF9F9" opacity="1.000000" stroke="none" 
	d="
M160.035233,163.988037 
	C161.116547,163.941116 162.197876,163.894196 163.772217,164.201843 
	C164.298615,164.784836 164.331985,165.013229 164.365341,165.241623 
	C164.306946,172.542145 164.327209,179.845078 164.101990,187.140457 
	C164.069687,188.187149 162.852707,189.197296 162.184006,190.224350 
	C161.663605,189.214478 160.714935,188.214371 160.691635,187.193161 
	C160.528839,180.058517 160.557510,172.919479 160.307648,165.139435 
	C160.072021,164.327362 160.053619,164.157715 160.035233,163.988037 
z"/>
<path fill="#FBF9F9" opacity="1.000000" stroke="none" 
	d="
M139.024094,163.839279 
	C139.761078,163.837097 140.498062,163.834900 141.872833,164.153931 
	C142.596710,164.747696 142.682831,165.020218 142.768921,165.292725 
	C142.676514,171.409317 142.679504,177.529999 142.418839,183.639404 
	C142.359985,185.018997 141.383255,186.359436 140.228699,187.674164 
	C139.628357,187.630447 139.200027,187.822037 139.200027,187.822037 
	C139.079544,180.583649 138.959076,173.345261 138.782333,165.301575 
	C138.825409,164.277283 138.924744,164.058289 139.024094,163.839279 
z"/>
<path fill="#A35A62" opacity="1.000000" stroke="none" 
	d="
M143.148987,165.288147 
	C142.682831,165.020218 142.596710,164.747696 142.241104,164.141296 
	C144.112701,163.585999 146.253784,163.364609 148.394867,163.143204 
	C148.428085,163.763290 148.461288,164.383377 148.494507,165.003448 
	C146.839340,165.096817 145.184189,165.190201 143.148987,165.288147 
z"/>
<path fill="#A35A62" opacity="1.000000" stroke="none" 
	d="
M138.749481,163.590927 
	C138.924744,164.058289 138.825409,164.277283 138.687958,164.855499 
	C136.712891,165.214706 134.775909,165.214706 132.838928,165.214706 
	C132.832962,164.590668 132.827011,163.966614 132.821060,163.342575 
	C134.705673,163.342575 136.590271,163.342575 138.749481,163.590927 
z"/>
<path fill="#AB686F" opacity="1.000000" stroke="none" 
	d="
M164.789886,165.268799 
	C164.331985,165.013229 164.298615,164.784836 164.178040,164.221146 
	C166.811707,163.742554 169.532532,163.599243 172.253372,163.455917 
	C172.289932,163.930191 172.326508,164.404465 172.363083,164.878738 
	C169.980209,165.017822 167.597321,165.156906 164.789886,165.268799 
z"/>
<path fill="#AB686F" opacity="1.000000" stroke="none" 
	d="
M159.616974,163.803314 
	C160.053619,164.157715 160.072021,164.327362 160.067200,164.752090 
	C157.526138,165.007172 155.008286,165.007172 152.490448,165.007172 
	C152.486893,164.544296 152.483322,164.081436 152.479767,163.618561 
	C154.719421,163.618561 156.959076,163.618561 159.616974,163.803314 
z"/>
<path fill="#BB8185" opacity="1.000000" stroke="none" 
	d="
M138.929581,188.007706 
	C139.200027,187.822037 139.628357,187.630447 139.806091,187.783661 
	C139.536301,188.864105 139.088745,189.791306 138.641205,190.718521 
	C138.254257,190.453171 137.505630,190.013397 137.536423,189.949539 
	C137.836105,189.328201 138.266220,188.769760 138.929581,188.007706 
z"/>
<path fill="#FBF9F9" opacity="1.000000" stroke="none" 
	d="
M191.038300,176.161530 
	C193.155014,175.958405 193.155014,175.958405 191.575012,179.980225 
	C191.386261,178.847977 191.197510,177.715714 191.038300,176.161530 
z"/>
<path fill="#ECDDDE" opacity="1.000000" stroke="none" 
	d="
M86.858742,190.066528 
	C85.636024,189.143021 84.227173,188.083893 84.170364,186.956619 
	C83.920799,182.004547 84.071129,177.032730 84.054726,172.068146 
	C84.050919,170.914047 84.209335,169.675903 83.851967,168.626694 
	C83.355873,167.170197 82.443176,165.855591 81.708839,164.480255 
	C83.568016,164.236267 85.427193,163.992279 87.294914,163.747162 
	C87.294914,172.853958 87.294914,181.376740 86.858742,190.066528 
z"/>
<path fill="#ECDDDE" opacity="1.000000" stroke="none" 
	d="
M57.005180,165.386887 
	C58.845531,164.440262 60.638683,163.952164 62.391178,163.475143 
	C62.835625,164.398392 63.337627,165.035248 63.204597,165.223618 
	C58.623840,171.710052 61.523277,179.087448 60.611599,185.996475 
	C60.417591,187.466705 59.344650,188.820938 58.676643,190.228622 
	C58.098099,188.761536 57.059288,187.306625 57.020138,185.825287 
	C56.844234,179.169434 56.952324,172.506073 57.005180,165.386887 
z"/>
<path fill="#ECE6E6" opacity="1.000000" stroke="none" 
	d="
M104.593727,118.164841 
	C104.682953,118.055611 104.831688,118.081535 104.840149,118.121574 
	C104.848610,118.161613 104.743164,118.422119 104.743164,118.422119 
	C104.743164,118.422119 104.504501,118.274063 104.593727,118.164841 
z"/>
<path fill="#ECDEE0" opacity="1.000000" stroke="none" 
	d="
M94.022964,164.528244 
	C95.083984,163.999466 96.138588,163.935562 97.573502,164.196136 
	C97.953812,164.520645 98.001045,165.001770 98.001045,165.001770 
	C97.910149,172.297745 97.913963,179.597305 97.636963,186.886200 
	C97.589706,188.129562 96.340668,189.327225 95.646820,190.546005 
	C95.103394,190.311401 94.559967,190.076782 94.016541,189.842178 
	C94.016541,181.559158 94.016541,173.276138 94.022964,164.528244 
z"/>
<path fill="#0E0102" opacity="1.000000" stroke="none" 
	d="
M100.013977,176.127640 
	C99.956329,175.310120 99.862091,174.493301 99.846840,173.674988 
	C99.725014,167.137695 102.924339,164.785263 109.231712,167.006119 
	C110.115707,167.317383 110.946877,168.803314 111.126144,169.860214 
	C111.422997,171.610397 111.169876,173.453888 110.610672,175.680252 
	C106.719917,176.110855 103.366943,176.119247 100.013977,176.127640 
z"/>
<path fill="#F6F5F5" opacity="1.000000" stroke="none" 
	d="
M116.955177,175.454391 
	C116.561234,175.973953 116.164047,176.041153 115.192719,176.021454 
	C114.229401,175.872818 113.840225,175.811066 113.451042,175.749329 
	C113.451042,172.807678 113.451042,169.866043 113.451042,165.541016 
	C118.580482,168.185638 116.295639,172.162338 116.955177,175.454391 
z"/>
<path fill="#C29298" opacity="1.000000" stroke="none" 
	d="
M98.468246,164.999100 
	C98.001045,165.001770 97.953812,164.520645 97.963593,164.279114 
	C103.017143,163.910675 108.060928,163.783783 113.574448,163.660614 
	C113.245018,164.115082 112.456619,164.931351 111.644890,164.955261 
	C107.411674,165.079910 103.172523,165.003128 98.468246,164.999100 
z"/>
<path fill="#761D26" opacity="1.000000" stroke="none" 
	d="
M100.331337,176.366455 
	C103.366943,176.119247 106.719917,176.110855 110.526123,176.144226 
	C107.535812,176.325745 104.092255,176.465500 100.331337,176.366455 
z"/>
<path fill="#C29298" opacity="1.000000" stroke="none" 
	d="
M113.298004,176.132172 
	C113.840225,175.811066 114.229401,175.872818 114.891647,176.053055 
	C114.659142,177.043655 114.153572,177.915771 113.356308,178.875839 
	C113.091408,178.147537 113.118187,177.331284 113.298004,176.132172 
z"/>
<path fill="#FBF9F9" opacity="1.000000" stroke="none" 
	d="
M107.975739,180.967087 
	C107.331711,180.729187 106.687675,180.491272 106.043655,180.253372 
	C106.209694,179.858704 106.375732,179.464035 106.541763,179.069366 
	C107.025215,179.455597 107.508667,179.841827 107.997391,180.612274 
	C108.002655,180.996506 107.975739,180.967087 107.975739,180.967087 
z"/>
<path fill="#6D131D" opacity="1.000000" stroke="none" 
	d="
M107.985733,180.987671 
	C107.968819,180.978821 108.377861,181.196396 108.377861,181.196396 
	C108.377861,181.196396 108.104836,181.173431 108.040283,181.070251 
	C107.975739,180.967087 108.002655,180.996506 107.985733,180.987671 
z"/>
<path fill="#ECE6E6" opacity="1.000000" stroke="none" 
	d="
M117.103378,116.323700 
	C117.292366,116.266739 117.570229,116.382812 117.812950,116.748993 
	C117.538406,116.883171 117.343216,116.715714 117.103378,116.323700 
z"/>
<path fill="#C03C46" opacity="1.000000" stroke="none" 
	d="
M122.965271,134.428650 
	C128.767654,133.783310 134.672775,133.549881 140.841003,133.663513 
	C140.931351,134.468140 140.750916,135.328262 140.586929,135.325134 
	C134.746323,135.213715 128.907272,135.021500 122.965271,134.428650 
z"/>
<path fill="#893B42" opacity="1.000000" stroke="none" 
	d="
M121.015030,107.014526 
	C120.493423,107.686249 119.961449,108.347977 119.429474,109.009705 
	C119.097008,108.713234 118.764534,108.416771 118.432068,108.120300 
	C119.049469,107.743156 119.666870,107.366005 120.635101,106.987274 
	C120.985931,106.985695 121.004662,107.004539 121.015030,107.014526 
z"/>
</svg>